<?xml version="1.0" encoding="utf-8"?>
<!-- Generator: Adobe Illustrator 19.0.0, SVG Export Plug-In . SVG Version: 6.00 Build 0)  -->
<svg version="1.1" id="Capa_1" xmlns="http://www.w3.org/2000/svg" xmlns:xlink="http://www.w3.org/1999/xlink" x="0px" y="0px"
	 width="200.4px" height="92.5px" viewBox="0 0 200.4 92.5" style="enable-background:new 0 0 200.4 92.5;" xml:space="preserve">
<style type="text/css">
	.st0{fill:#FFFFFF;}
	.st1{fill:#751E19;}
	.st2{fill:url(#XMLID_15_);}
</style>
<g id="XMLID_2000_">
	<g id="XMLID_2006_">
		<g id="XMLID_151_">
			<path id="XMLID_170_" class="st0" d="M14.4,72.7c-3.2,0-5.5,2.5-5.5,6c0,3.5,2.3,6.1,5.5,6.1c1.9,0,4.3-1.2,6-3l5.1,5.4
				c-2.9,3.2-7.4,5.3-11.5,5.3c-8.1,0-14-5.8-14-13.6c0-7.8,6-13.4,14.3-13.4c4,0,8.4,1.9,11.2,4.8l-5.1,6
				C18.9,74.1,16.5,72.7,14.4,72.7z"/>
			<path id="XMLID_167_" class="st0" d="M49.6,81.8c0,6.4-4.6,10.6-11.6,10.6c-7.1,0-11.7-4.2-11.7-10.6c0-6.4,4.6-10.6,11.7-10.6
				C45.1,71.2,49.6,75.3,49.6,81.8z M34.9,81.9c0,2.4,1.2,4,3.1,4c1.9,0,3.1-1.6,3.1-4c0-2.4-1.2-4-3.1-4
				C36.1,77.9,34.9,79.5,34.9,81.9z"/>
			<path id="XMLID_165_" class="st0" d="M75.1,78.9v13.2h-8.5V81.4c0-1.7-1-2.8-2.4-2.8c-1.7,0-2.7,1.3-2.7,3.3v10.2H53V71.5h8.5
				v2.9c1.4-2.1,3.5-3.3,6.3-3.3C72.1,71.1,75.1,74.2,75.1,78.9z"/>
			<path id="XMLID_163_" class="st0" d="M94.2,91.2c-1.4,0.8-3.7,1.3-5.9,1.3c-4.7,0-7.8-2.7-7.8-7V78h-2.8v-5.4h2.8v-5.8H89v5.8
				h4.8V78H89v6.2c0,1.1,0.6,1.8,1.7,1.7c0.5,0,1.3-0.2,2.1-0.5L94.2,91.2z"/>
			<path id="XMLID_161_" class="st0" d="M112.4,71.1v7.7c-3.8-0.6-6.3,0.8-6.3,3.5v9.8h-8.5V71.5h8.5v3
				C107.5,72.3,109.7,71.1,112.4,71.1z"/>
			<path id="XMLID_158_" class="st0" d="M137.3,81.8c0,6.4-4.6,10.6-11.7,10.6c-7.1,0-11.6-4.2-11.6-10.6c0-6.4,4.6-10.6,11.6-10.6
				C132.8,71.2,137.3,75.3,137.3,81.8z M122.6,81.9c0,2.4,1.2,4,3.1,4c1.9,0,3.1-1.6,3.1-4c0-2.4-1.2-4-3.1-4
				C123.8,77.9,122.6,79.5,122.6,81.9z"/>
			<path id="XMLID_156_" class="st0" d="M149.4,64.1v28h-8.5v-28H149.4z"/>
			<path id="XMLID_154_" class="st0" d="M166.4,92.5c-2.1,0-4-0.3-5.8-1c-1.7-0.7-3.4-1.8-5-3.2l1.8-2.2c1.4,1.3,2.8,2.2,4.2,2.8
				c1.4,0.6,3,0.9,4.9,0.9c1.8,0,3.2-0.4,4.3-1.3c1.1-0.8,1.6-1.9,1.6-3.2v-0.1c0-0.6-0.1-1.2-0.3-1.6c-0.2-0.5-0.6-0.9-1.1-1.3
				c-0.5-0.4-1.2-0.8-2.1-1.1c-0.9-0.3-2-0.6-3.4-0.9c-1.5-0.3-2.8-0.7-3.9-1.1c-1.1-0.4-2-0.9-2.8-1.5c-0.7-0.6-1.3-1.3-1.6-2.1
				c-0.4-0.8-0.5-1.7-0.5-2.8v-0.1c0-1,0.2-2,0.6-2.9c0.4-0.9,1-1.6,1.8-2.3c0.8-0.6,1.7-1.1,2.8-1.5s2.2-0.5,3.5-0.5
				c1.9,0,3.6,0.3,5.1,0.8c1.4,0.5,2.8,1.4,4.2,2.4l-1.7,2.3c-1.2-1-2.5-1.7-3.7-2.2c-1.2-0.5-2.5-0.7-3.9-0.7
				c-1.7,0-3.1,0.4-4.1,1.2c-1,0.8-1.5,1.8-1.5,3v0.1c0,0.6,0.1,1.2,0.3,1.7c0.2,0.5,0.6,0.9,1.1,1.4c0.5,0.4,1.3,0.8,2.2,1.1
				c0.9,0.3,2.1,0.7,3.6,1c2.9,0.7,5.1,1.6,6.5,2.7c1.4,1.2,2.1,2.7,2.1,4.7V85c0,1.1-0.2,2.2-0.7,3.1c-0.4,0.9-1.1,1.7-1.8,2.4
				c-0.8,0.7-1.7,1.2-2.8,1.5C168.9,92.3,167.7,92.5,166.4,92.5z"/>
			<path id="XMLID_152_" class="st0" d="M181.4,65.7h19v2.8h-16v9.5h14.3v2.7h-14.3v11.5h-3V65.7z"/>
		</g>
	</g>
	<g id="XMLID_2001_">
		<path id="XMLID_2005_" class="st1" d="M133.5,0c-1.2,0-2.2,1-2.2,2.2c0,17.1-13.9,31.1-31.1,31.1S69.1,19.4,69.1,2.2
			c0-1.2-1-2.2-2.2-2.2s-2.2,1-2.2,2.2c0,17.1-13.9,31.1-31.1,31.1h-7c-1.2,0-2.2,1-2.2,2.2s1,2.2,2.2,2.2h33.8c1.2,0,2.2-1,2.2-2.2
			s-1-2.2-2.2-2.2h-9.6c7.4-4.1,13.1-10.7,16.1-18.7c5,13.5,18.1,23.1,33.3,23.1c19.6,0,35.5-15.9,35.5-35.5
			C135.7,1,134.7,0,133.5,0z"/>
		<linearGradient id="XMLID_15_" gradientUnits="userSpaceOnUse" x1="64.6805" y1="24.3536" x2="176.0276" y2="24.3536">
			<stop  offset="0" style="stop-color:#C43424"/>
			<stop  offset="1" style="stop-color:#C32A25"/>
		</linearGradient>
		<path id="XMLID_2002_" class="st2" d="M173.8,33.3h-7c-17.1,0-31.1-13.9-31.1-31.1c0-1.2-1-2.2-2.2-2.2c-1.2,0-2.2,1-2.2,2.2v31.1
			h-31c-17.1,0-31.1-13.9-31.1-31.1h0c0-1.2-1-2.2-2.2-2.2s-2.2,1-2.2,2.2v44.3c0,1.2,1,2.2,2.2,2.2s2.2-1,2.2-2.2V19.4
			c3.2,5.9,8.1,10.7,13.9,13.9h-9.6c-1.2,0-2.2,1-2.2,2.2s1,2.2,2.2,2.2h57.8v8.7c0,1.2,1,2.2,2.2,2.2c1.2,0,2.2-1,2.2-2.2v-8.7
			h38.1c1.2,0,2.2-1,2.2-2.2S175,33.3,173.8,33.3z M135.7,33.3V19.4c3.2,5.8,8,10.6,13.9,13.9H135.7z"/>
	</g>
</g>
</svg>
