<!-- Generator: Adobe Illustrator 19.0.0, SVG Export Plug-In  -->
<svg version="1.1"
	 xmlns="http://www.w3.org/2000/svg" xmlns:xlink="http://www.w3.org/1999/xlink" xmlns:a="http://ns.adobe.com/AdobeSVGViewerExtensions/3.0/"
	 x="0px" y="0px" width="500.4px" height="119.4px" viewBox="0 0 500.4 119.4" enable-background="new 0 0 500.4 119.4"
	 xml:space="preserve">
<defs>
</defs>
<g id="XMLID_15_">
	<path id="XMLID_82_" fill="#FFFFFF" d="M37.8,67c0,0-1.1,1.2-1.2,1.3c-0.9,1-1.9,2-3.1,2.7c-2.4,1.6-5.3,2.3-8.1,2
		c-5.4-0.4-9.4-4.6-10.6-9.7c-1.2-5.2,0.1-11.2,4.4-14.7c4.1-3.3,9.9-3.3,14.2-0.5l0,7.2l11.7-9.2c0.5-0.4,0.9-0.7,1.4-1.1
		c0.4-0.3,0.9-0.7,1.3-1c0.1-0.1,0.1-0.1,0.2-0.2c0,0-0.9-1.2-1-1.4c-3.4-4.2-8-7.2-13.3-8.4c-5.7-1.3-11.9-1-17.3,1.1
		c-4.8,1.9-9,5.2-11.9,9.6C1.4,49.3,0,54.5,0,59.8c0,1,0.1,2,0.1,2.9c0.5,5.3,2.7,10.4,6.2,14.5c3.4,3.9,8.1,6.7,13.1,7.9
		c5.6,1.4,11.9,1,17.2-1.1c4.8-1.9,8.6-5.4,11.6-9.5c-3.4-2.4-6.8-4.9-10.3-7.3C38,67.1,37.9,67.1,37.8,67z"/>
	<path id="XMLID_79_" fill="#FFFFFF" d="M69.6,35.4c-4.9,1.9-9.2,5.3-12.1,9.6c-3,4.3-4.5,9.5-4.5,14.8c0,2.8,0.4,5.6,1.3,8.2
		c1.6,4.9,4.7,9.3,8.9,12.4c4.4,3.3,9.7,5.1,15.1,5.4c5.6,0.3,11.3-0.9,16.1-3.7c4.5-2.6,8.2-6.6,10.4-11.3
		c4.5-9.6,2.7-21.5-4.7-29.2C92.4,33.6,79.9,31.3,69.6,35.4z M89.7,69c-2.2,2.5-5.3,4.1-8.7,4.3c-5.6,0.3-10.6-2.9-12.7-8
		c-2-4.9-1.3-10.9,2.2-14.9c3.6-4.2,9.8-5.4,14.8-3.1c4.9,2.2,7.7,7.4,7.7,12.6C93,63.1,91.9,66.4,89.7,69z"/>
	<path id="XMLID_78_" fill="#FFFFFF" d="M155.5,34.4c-1.6,0-3.1,0-4.7,0c-0.7,0-0.6-0.1-0.6,0.6c0,2.8,0,5.6,0,8.5
		c0,5.9,0,11.8,0,17.6c-2.7-3.5-5.4-6.9-8.1-10.4c-4.1-5.2-8.1-10.4-12.2-15.6c-0.2-0.2-0.4-0.7-0.7-0.7c-1.3,0-2.7,0-4,0
		c-2.9,0-5.9,0-8.8,0c0,2,0,3.9,0,5.9c0,7.3,0,14.7,0,22c0,6.6,0,13.2,0,19.8c0,0.7,0,1.5,0,2.2c0,0.3-0.1,0.5,0.2,0.5
		c3.3,0,6.6,0,9.8,0c1.2,0,2.5,0,3.7,0c0.2,0,0.1-0.9,0.1-1.1c0-3.1,0-6.1,0-9.2c0-5.8,0-11.6,0-17.4c1,1.3,2,2.6,3,3.9
		c4.6,5.9,9.2,11.8,13.8,17.8c1.5,1.9,2.9,3.8,4.4,5.6c0.3,0.4,0.3,0.4,0.9,0.4c1.6,0,3.2,0,4.9,0c1.8,0,3.6,0,5.5,0
		c0.3,0,1.3,0.2,1.3-0.1c0-1.6,0-3.1,0-4.7c0-7.2,0-14.3,0-21.5c0-6.8,0-13.7,0-20.5c0-1.2,0-2.4,0-3.6
		C164,34.4,156,34.4,155.5,34.4z"/>
	<path id="XMLID_75_" fill="#FFFFFF" d="M292.6,35.4c-4.9,1.9-9.2,5.3-12.2,9.6c-3,4.3-4.5,9.5-4.5,14.8c0,2.8,0.4,5.6,1.3,8.2
		c1.6,4.9,4.7,9.3,8.9,12.4c4.4,3.3,9.7,5.1,15.1,5.4c5.6,0.3,11.3-0.9,16.1-3.7c4.5-2.6,8.2-6.6,10.4-11.3
		c4.6-9.6,2.7-21.5-4.7-29.2C315.4,33.6,302.9,31.3,292.6,35.4z M312.8,69c-2.2,2.5-5.3,4.1-8.7,4.3c-5.6,0.3-10.6-2.9-12.7-8
		c-2-4.9-1.3-10.9,2.2-14.9c3.6-4.2,9.8-5.4,14.8-3.1c4.9,2.2,7.7,7.4,7.7,12.6C316,63.1,314.9,66.4,312.8,69z"/>
	<path id="XMLID_72_" fill="#FFFFFF" d="M258.5,67.3c4.8-2.1,8.6-5.9,9.9-11.1c1.3-5.5,0.3-11.9-3.7-16c-4-4.1-9.7-5.5-15.4-5.7
		c-2.4-0.1-4.7,0-7.1,0c-6,0-12.1,0-18.1,0c0,0.8,0,1.6,0,2.4c0,6.4,0,12.9,0,19.3c0,7.4,0,14.9,0,22.3c0,2,0,3.9,0,5.9
		c0,0.3-0.1,0.6,0.2,0.6c1.3,0,2.6,0,3.9,0c3.3,0,6.5,0,9.8,0c0.2,0,0.2,0,0.2-0.2c0-0.5,0-1,0-1.5c0-1.8,0-3.6,0-5.3
		c0-0.5,0-8.2,0-8.2c1.5,0,3.1,0,4.6,0c0.4,0,0.7,0,1.1,0c0.1,0,0.4,0,0.4,0c0.1,0.1,0.3,0.4,0.3,0.5c3.3,4.9,6.5,9.8,9.8,14.8
		c0,0.1,0.6,0,0.6,0c0.6,0,1.2,0,1.8,0c1.8,0,3.7,0,5.5,0c2.7,0,5.4,0,8.1,0c-0.6-0.8-1.1-1.7-1.7-2.5
		C265.3,77.3,261.9,72.3,258.5,67.3z M253.9,55.8c-1.4,2.2-4.2,2.9-6.7,2.9c-1.8,0-3.6,0-5.5,0c-1,0-2.1,0-3.2,0
		c-0.4,0-0.6,0.2-0.6-0.3c0-2.1,0-4.2,0-6.3l-5.4-5.4c0,0,9.3,0,11,0c3.4,0,8.2-0.6,10.3,2.8C255.1,51.2,255.1,53.9,253.9,55.8z"/>
	<path id="XMLID_71_" fill="#FFFFFF" d="M215.7,34.4c-0.7,0-1.5,0-2.2,0c-6.9,0-13.7,0-20.6,0c-6.5,0-12.9,0-19.4,0
		c-0.5,0-1,0-1.6,0c-0.2,0-0.1,1.7-0.1,1.8c0,3.4,0,6.7,0,10.1c0,0.2-0.1,0.3,0.2,0.3c0.4,0,0.9,0,1.3,0c1.7,0,3.5,0,5.2,0
		c2.8,0,5.6,0,8.4,0c0,2.4,0,4.8,0,7.1c0,7.6,0,15.3,0,22.9c0,2.4,0,4.9,0,7.4c0,0.2-0.1,0.8,0.1,0.8c1.3,0,2.5,0,3.8,0
		c3.3,0,6.6,0,9.9,0c0.4,0,0.2-0.4,0.2-0.7c0-0.9,0-1.9,0-2.8c0-7.3,0-14.6,0-21.9c0-2.1,0-4.2,0-6.3l-6.4-6.4h6.5v0
		c0.1,0,0.1,0,0.3,0c3.4,0,6.8,0,10.1,0c1.4,0,2.8,0,4.2,0c0.1,0,0.4,0.1,0.4-0.1c0-0.4,0-0.9,0-1.3c0-3.4,0-6.9,0-10.3
		C216.2,34.4,216.2,34.4,215.7,34.4z"/>
	<path id="XMLID_70_" fill="#FFFFFF" d="M377.8,76.5c0-1.3,0-2.6,0-3.8c0-0.2-1.2-0.1-1.3-0.1c-3.3,0-6.6,0-10,0
		c-3.6,0-7.2,0-10.7,0c-0.8,0-1.6,0-2.3,0c-0.1,0,0-0.8,0-0.9c0-6.4,0-12.7,0-19.1c0-6,0-11.9,0-17.8c0-0.5-0.1-0.4-0.6-0.4
		c-1.6,0-3.1,0-4.7,0c-2.9,0-5.8,0-8.7,0c0,3.7,0,7.3,0,11c0,7.8,0,15.6,0,23.4c0,5.2,0,10.4,0,15.6c0,0.2-0.1,0.4,0.1,0.4
		c0.6,0,1.3,0,1.9,0c3,0,5.9,0,8.9,0c7.5,0,15,0,22.5,0c1.6,0,3.3,0,4.9,0C377.8,84.9,377.8,77.1,377.8,76.5z"/>
	
		<linearGradient id="XMLID_83_" gradientUnits="userSpaceOnUse" x1="397.0832" y1="-13090.1865" x2="500.389" y2="-13090.1865" gradientTransform="matrix(1 0 0 -1 0 -13030.5459)">
		<stop  offset="0" style="stop-color:#C0321E"/>
		<stop  offset="1" style="stop-color:#90211E"/>
	</linearGradient>
	<polygon id="XMLID_69_" fill="url(#XMLID_83_)" points="448.7,119.3 397.1,89.5 397.1,29.8 448.7,0 500.4,29.8 500.4,89.5 	"/>
	
		<linearGradient id="XMLID_84_" gradientUnits="userSpaceOnUse" x1="397.0832" y1="-13090.3447" x2="500.389" y2="-13090.3447" gradientTransform="matrix(1 0 0 -1 0 -13030.5459)">
		<stop  offset="0" style="stop-color:#F1F1F1"/>
		<stop  offset="1" style="stop-color:#D5D6D7"/>
	</linearGradient>
	<polygon id="XMLID_68_" fill="url(#XMLID_84_)" points="448.7,119.4 397.1,89.6 397.1,30 448.7,0.2 500.4,30 500.4,89.6 	"/>
	<g id="XMLID_62_">
		<path id="XMLID_66_" fill="#A3322F" d="M423,51.4l-3-2.2c3.2-4.8,6.6-7.7,13-7.7c6.5,0,11.2,4.3,11.2,10.3c0,5.3-2.8,8.5-9.1,14.1
			l-9.6,8.5h19.1v3.7h-25.2v-3.1l13.1-11.5c5.5-4.9,7.5-7.7,7.5-11.3c0-4.2-3.3-6.9-7.3-6.9C428.5,45.2,425.9,47.3,423,51.4z"/>
		<path id="XMLID_63_" fill="#A3322F" d="M472.5,41.8v24.4h5.6v3.4h-5.6v8.6h-3.9v-8.6h-19l-1-2.9L469,41.8H472.5z M468.6,47.5
			l-15.1,18.6h15.1V47.5z"/>
	</g>
	<g id="XMLID_16_">
		<path id="XMLID_60_" fill="#FFFFFF" d="M9.1,113.8H9l-6.5-9.5v14.4h-2v-17.8h2l6.5,9.7l6.5-9.7h2v17.8h-2v-14.4L9.1,113.8z"/>
		<path id="XMLID_57_" fill="#FFFFFF" d="M32.2,119c-5.4,0-9.1-4.3-9.1-9.2c0-4.9,3.7-9.2,9.1-9.2s9.1,4.3,9.1,9.2
			C41.4,114.7,37.7,119,32.2,119z M32.2,102.5c-4.1,0-7,3.3-7,7.3c0,4.1,3,7.4,7,7.4s7-3.3,7-7.3C39.3,105.8,36.3,102.5,32.2,102.5z
			"/>
		<path id="XMLID_55_" fill="#FFFFFF" d="M60,100.9h2v17.8h-1.6l-11.5-14.6v14.6h-2v-17.8h1.9L60,115.2V100.9z"/>
		<path id="XMLID_53_" fill="#FFFFFF" d="M70.5,100.9v17.8h-2v-17.8H70.5z"/>
		<path id="XMLID_51_" fill="#FFFFFF" d="M83.7,118.7h-2v-16h-6v-1.9h14v1.9h-6V118.7z"/>
		<path id="XMLID_48_" fill="#FFFFFF" d="M101.8,119c-5.4,0-9.1-4.3-9.1-9.2c0-4.9,3.7-9.2,9.1-9.2c5.4,0,9.1,4.3,9.1,9.2
			C110.9,114.7,107.2,119,101.8,119z M101.8,102.5c-4.1,0-7,3.3-7,7.3c0,4.1,3,7.4,7,7.4c4.1,0,7-3.3,7-7.3
			C108.8,105.8,105.8,102.5,101.8,102.5z"/>
		<path id="XMLID_45_" fill="#FFFFFF" d="M128.7,118.7l-5.2-6.9h-5.1v6.9h-2v-17.8h7.7c3.9,0,6.4,2.1,6.4,5.3c0,3-2,4.7-4.8,5.2
			l5.5,7.3H128.7z M123.9,102.8h-5.5v7.2h5.5c2.7,0,4.6-1.4,4.6-3.7C128.5,104.1,126.8,102.8,123.9,102.8z"/>
		<path id="XMLID_43_" fill="#FFFFFF" d="M149,102.7h-10.9v6.1h9.7v1.8h-9.7v6.2h11v1.8h-13v-17.8H149V102.7z"/>
		<path id="XMLID_40_" fill="#FFFFFF" d="M162.7,119c-5.4,0-9.1-4.3-9.1-9.2c0-4.9,3.7-9.2,9.1-9.2c5.4,0,9.1,4.3,9.1,9.2
			C171.8,114.7,168.1,119,162.7,119z M162.7,102.5c-4.1,0-7,3.3-7,7.3c0,4.1,3,7.4,7,7.4c4.1,0,7-3.3,7-7.3
			C169.7,105.8,166.8,102.5,162.7,102.5z"/>
		<path id="XMLID_37_" fill="#FFFFFF" d="M196.3,118.7h-6.2v-17.8h6.2c5.6,0,9.5,3.8,9.5,8.9C205.7,114.8,201.9,118.7,196.3,118.7z
			 M196.3,102.8h-4.2v14.1h4.2c4.5,0,7.4-3.1,7.4-7C203.7,105.9,200.8,102.8,196.3,102.8z"/>
		<path id="XMLID_35_" fill="#FFFFFF" d="M224.1,102.7h-10.9v6.1h9.7v1.8h-9.7v6.2h11v1.8h-13v-17.8h12.9V102.7z"/>
		<path id="XMLID_32_" fill="#FFFFFF" d="M258.9,118.7h-2.2l-2.1-4.7H245l-2.1,4.7h-2.1l8.1-18h1.9L258.9,118.7z M249.8,103.1
			l-4.1,9.1h8.1L249.8,103.1z"/>
		<path id="XMLID_30_" fill="#FFFFFF" d="M263.7,100.9h2v16h10v1.9h-12V100.9z"/>
		<path id="XMLID_27_" fill="#FFFFFF" d="M297.4,118.7h-2.2l-2.1-4.7h-9.7l-2.1,4.7h-2.1l8.1-18h1.9L297.4,118.7z M288.3,103.1
			l-4.1,9.1h8.1L288.3,103.1z"/>
		<path id="XMLID_24_" fill="#FFFFFF" d="M314.4,118.7l-5.2-6.9h-5.1v6.9h-2v-17.8h7.7c3.9,0,6.4,2.1,6.4,5.3c0,3-2,4.7-4.8,5.2
			l5.5,7.3H314.4z M309.7,102.8h-5.5v7.2h5.5c2.7,0,4.6-1.4,4.6-3.7C314.2,104.1,312.5,102.8,309.7,102.8z"/>
		<path id="XMLID_22_" fill="#FFFFFF" d="M330.4,113.8L330.4,113.8l-6.6-9.5v14.4h-2v-17.8h2l6.5,9.7l6.5-9.7h2v17.8h-2v-14.4
			L330.4,113.8z"/>
		<path id="XMLID_19_" fill="#FFFFFF" d="M361.8,118.7h-2.2l-2.1-4.7h-9.7l-2.1,4.7h-2.1l8.1-18h1.9L361.8,118.7z M352.7,103.1
			l-4.1,9.1h8.1L352.7,103.1z"/>
		<path id="XMLID_17_" fill="#FFFFFF" d="M372.6,108.8c4,0.9,5.8,2.3,5.8,5.1c0,3.1-2.5,5.1-6.1,5.1c-2.8,0-5.1-0.9-7.3-2.9l1.2-1.5
			c1.9,1.7,3.6,2.5,6.1,2.5c2.4,0,4-1.2,4-3.1c0-1.7-0.9-2.6-4.6-3.4c-4.1-0.9-6-2.2-6-5.2c0-2.9,2.5-4.9,5.9-4.9
			c2.6,0,4.5,0.7,6.3,2.2l-1.2,1.6c-1.7-1.3-3.3-1.9-5.1-1.9c-2.3,0-3.8,1.3-3.8,2.9C367.8,107.1,368.7,108,372.6,108.8z"/>
	</g>
</g>
</svg>